<svg version="1.1" viewBox="0.0 0.0 800.0 600.0" fill="none" stroke="none" stroke-linecap="square" stroke-miterlimit="10" xmlns:xlink="http://www.w3.org/1999/xlink" xmlns="http://www.w3.org/2000/svg"><clipPath id="p.0"><path d="m0 0l800.0 0l0 600.0l-800.0 0l0 -600.0z" clip-rule="nonzero"/></clipPath><g clip-path="url(#p.0)"><path fill="#000000" fill-opacity="0.0" d="m0 0l800.0 0l0 600.0l-800.0 0z" fill-rule="evenodd"/><path fill="#f4cccc" fill-opacity="0.2975" d="m53.51706 260.91077l0 0c0 -117.02348 97.53142 -211.88977 217.84253 -211.88977l0 0c57.77542 0 113.18451 22.324036 154.0379 62.061073c40.853394 39.737038 63.804596 93.63203 63.804596 149.8287l0 0c0 117.02347 -97.5314 211.88977 -217.8425 211.88977l0 0c-120.31111 0 -217.84253 -94.8663 -217.84253 -211.88977z" fill-rule="evenodd"/><path stroke="#000000" stroke-width="1.3963254593175853" stroke-linejoin="round" stroke-linecap="butt" d="m53.51706 260.91077l0 0c0 -117.02348 97.53142 -211.88977 217.84253 -211.88977l0 0c57.77542 0 113.18451 22.324036 154.0379 62.061073c40.853394 39.737038 63.804596 93.63203 63.804596 149.8287l0 0c0 117.02347 -97.5314 211.88977 -217.8425 211.88977l0 0c-120.31111 0 -217.84253 -94.8663 -217.84253 -211.88977z" fill-rule="evenodd"/><path fill="#d0e2f3" fill-opacity="0.2975" d="m307.82617 260.91077l0 0c0 -117.02348 97.5314 -211.88977 217.84253 -211.88977l0 0c57.77539 0 113.18451 22.324036 154.0379 62.061073c40.853394 39.737038 63.804626 93.63203 63.804626 149.8287l0 0c0 117.02347 -97.53143 211.88977 -217.84253 211.88977l0 0c-120.31113 0 -217.84253 -94.8663 -217.84253 -211.88977z" fill-rule="evenodd"/><path stroke="#000000" stroke-width="1.3963254593175853" stroke-linejoin="round" stroke-linecap="butt" d="m307.82617 260.91077l0 0c0 -117.02348 97.5314 -211.88977 217.84253 -211.88977l0 0c57.77539 0 113.18451 22.324036 154.0379 62.061073c40.853394 39.737038 63.804626 93.63203 63.804626 149.8287l0 0c0 117.02347 -97.53143 211.88977 -217.84253 211.88977l0 0c-120.31113 0 -217.84253 -94.8663 -217.84253 -211.88977z" fill-rule="evenodd"/><path fill="#000000" fill-opacity="0.0" d="m489.2244 200.02853l257.25986 0l0 121.763794l-257.25986 0z" fill-rule="evenodd"/><path fill="#000000" d="m514.53827 238.03358l-4.953125 -18.640625l2.53125 0l2.84375 12.21875q0.453125 1.921875 0.78125 3.8125q0.71875 -2.984375 0.84375 -3.4375l3.546875 -12.59375l2.984375 0l2.671875 9.4375q1.0 3.5 1.4375 6.59375q0.359375 -1.765625 0.9375 -4.0625l2.921875 -11.96875l2.484375 0l-5.125 18.640625l-2.375 0l-3.921875 -14.203125q-0.5 -1.78125 -0.59375 -2.1875q-0.28125 1.28125 -0.546875 2.1875l-3.953125 14.203125l-2.515625 0zm21.037415 0l0 -18.640625l2.28125 0l0 6.6875q1.609375 -1.859375 4.046875 -1.859375q1.5 0 2.609375 0.59375q1.109375 0.59375 1.578125 1.640625q0.484375 1.03125 0.484375 3.015625l0 8.5625l-2.296875 0l0 -8.5625q0 -1.71875 -0.75 -2.5q-0.734375 -0.78125 -2.09375 -0.78125q-1.015625 0 -1.921875 0.53125q-0.890625 0.53125 -1.28125 1.4375q-0.375 0.890625 -0.375 2.484375l0 7.390625l-2.28125 0zm23.298523 -1.671875q-1.265625 1.09375 -2.453125 1.546875q-1.171875 0.4375 -2.515625 0.4375q-2.234375 0 -3.4375 -1.09375q-1.1875 -1.09375 -1.1875 -2.78125q0 -0.984375 0.453125 -1.796875q0.453125 -0.828125 1.1875 -1.328125q0.734375 -0.5 1.640625 -0.75q0.671875 -0.1875 2.03125 -0.34375q2.78125 -0.328125 4.09375 -0.796875q0.015625 -0.46875 0.015625 -0.59375q0 -1.390625 -0.65625 -1.96875q-0.875 -0.78125 -2.609375 -0.78125q-1.609375 0 -2.390625 0.578125q-0.765625 0.5625 -1.125 2.0l-2.25 -0.3125q0.3125 -1.4375 1.015625 -2.3125q0.703125 -0.890625 2.015625 -1.359375q1.328125 -0.484375 3.0625 -0.484375q1.734375 0 2.8125 0.40625q1.078125 0.40625 1.59375 1.03125q0.515625 0.609375 0.71875 1.546875q0.109375 0.59375 0.109375 2.109375l0 3.0625q0 3.1875 0.140625 4.03125q0.15625 0.84375 0.578125 1.625l-2.390625 0q-0.359375 -0.71875 -0.453125 -1.671875zm-0.1875 -5.109375q-1.25 0.515625 -3.75 0.875q-1.40625 0.203125 -2.0 0.453125q-0.578125 0.25 -0.890625 0.75q-0.3125 0.484375 -0.3125 1.078125q0 0.921875 0.6875 1.53125q0.6875 0.609375 2.03125 0.609375q1.3125 0 2.34375 -0.578125q1.03125 -0.578125 1.515625 -1.59375q0.375 -0.765625 0.375 -2.28125l0 -0.84375zm10.861023 4.734375l0.328125 2.015625q-0.96875 0.203125 -1.734375 0.203125q-1.25 0 -1.9375 -0.390625q-0.671875 -0.390625 -0.953125 -1.03125q-0.28125 -0.640625 -0.28125 -2.703125l0 -7.765625l-1.6875 0l0 -1.78125l1.6875 0l0 -3.359375l2.265625 -1.359375l0 4.71875l2.3125 0l0 1.78125l-2.3125 0l0 7.890625q0 0.984375 0.125 1.265625q0.125 0.265625 0.390625 0.4375q0.28125 0.171875 0.78125 0.171875q0.390625 0 1.015625 -0.09375zm14.473328 0l0.328125 2.015625q-0.96875 0.203125 -1.734375 0.203125q-1.25 0 -1.9375 -0.390625q-0.671875 -0.390625 -0.953125 -1.03125q-0.28125 -0.640625 -0.28125 -2.703125l0 -7.765625l-1.6875 0l0 -1.78125l1.6875 0l0 -3.359375l2.265625 -1.359375l0 4.71875l2.3125 0l0 1.78125l-2.3125 0l0 7.890625q0 0.984375 0.125 1.265625q0.125 0.265625 0.390625 0.4375q0.28125 0.171875 0.78125 0.171875q0.390625 0 1.015625 -0.09375zm2.2366943 2.046875l0 -18.640625l2.28125 0l0 6.6875q1.609375 -1.859375 4.046875 -1.859375q1.5 0 2.609375 0.59375q1.109375 0.59375 1.578125 1.640625q0.484375 1.03125 0.484375 3.015625l0 8.5625l-2.296875 0l0 -8.5625q0 -1.71875 -0.75 -2.5q-0.734375 -0.78125 -2.09375 -0.78125q-1.015625 0 -1.921875 0.53125q-0.890625 0.53125 -1.28125 1.4375q-0.375 0.890625 -0.375 2.484375l0 7.390625l-2.28125 0zm23.736023 -4.34375l2.359375 0.28125q-0.5625 2.078125 -2.078125 3.234375q-1.515625 1.140625 -3.859375 1.140625q-2.96875 0 -4.703125 -1.828125q-1.734375 -1.828125 -1.734375 -5.125q0 -3.40625 1.75 -5.28125q1.765625 -1.890625 4.5625 -1.890625q2.703125 0 4.421875 1.84375q1.71875 1.84375 1.71875 5.1875q0 0.203125 -0.015625 0.609375l-10.078125 0q0.140625 2.234375 1.265625 3.421875q1.125 1.171875 2.828125 1.171875q1.25 0 2.140625 -0.65625q0.890625 -0.671875 1.421875 -2.109375zm-7.515625 -3.703125l7.53125 0q-0.15625 -1.703125 -0.859375 -2.5625q-1.09375 -1.3125 -2.84375 -1.3125q-1.578125 0 -2.65625 1.0625q-1.0625 1.046875 -1.171875 2.8125zm28.800842 3.09375l2.25 0.296875q-0.375 2.328125 -1.890625 3.65625q-1.515625 1.3125 -3.734375 1.3125q-2.765625 0 -4.453125 -1.8125q-1.6875 -1.8125 -1.6875 -5.203125q0 -2.1875 0.71875 -3.828125q0.734375 -1.640625 2.21875 -2.453125q1.484375 -0.828125 3.21875 -0.828125q2.203125 0 3.59375 1.109375q1.40625 1.109375 1.796875 3.171875l-2.21875 0.34375q-0.328125 -1.375 -1.140625 -2.046875q-0.796875 -0.6875 -1.9375 -0.6875q-1.734375 0 -2.8125 1.234375q-1.078125 1.234375 -1.078125 3.921875q0 2.71875 1.03125 3.953125q1.046875 1.234375 2.734375 1.234375q1.34375 0 2.234375 -0.828125q0.90625 -0.828125 1.15625 -2.546875zm3.3515625 -1.796875q0 -3.75 2.09375 -5.5625q1.734375 -1.5 4.25 -1.5q2.78125 0 4.546875 1.828125q1.765625 1.828125 1.765625 5.046875q0 2.59375 -0.78125 4.09375q-0.78125 1.5 -2.28125 2.328125q-1.484375 0.828125 -3.25 0.828125q-2.84375 0 -4.59375 -1.8125q-1.75 -1.828125 -1.75 -5.25zm2.359375 0q0 2.59375 1.125 3.890625q1.140625 1.28125 2.859375 1.28125q1.703125 0 2.828125 -1.296875q1.140625 -1.296875 1.140625 -3.953125q0 -2.5 -1.140625 -3.796875q-1.140625 -1.296875 -2.828125 -1.296875q-1.71875 0 -2.859375 1.296875q-1.125 1.28125 -1.125 3.875zm12.986023 6.75l0 -13.5l2.046875 0l0 1.890625q0.640625 -1.0 1.6875 -1.59375q1.0625 -0.609375 2.40625 -0.609375q1.5 0 2.453125 0.625q0.96875 0.625 1.359375 1.734375q1.609375 -2.359375 4.171875 -2.359375q2.015625 0 3.09375 1.109375q1.078125 1.109375 1.078125 3.4375l0 9.265625l-2.28125 0l0 -8.515625q0 -1.359375 -0.21875 -1.96875q-0.21875 -0.609375 -0.8125 -0.96875q-0.578125 -0.375 -1.359375 -0.375q-1.4375 0 -2.375 0.953125q-0.9375 0.9375 -0.9375 3.03125l0 7.84375l-2.296875 0l0 -8.78125q0 -1.515625 -0.5625 -2.28125q-0.546875 -0.765625 -1.828125 -0.765625q-0.953125 0 -1.78125 0.515625q-0.8125 0.5 -1.1875 1.484375q-0.375 0.96875 -0.375 2.828125l0 7.0l-2.28125 0zm21.697266 5.171875l0 -18.671875l2.078125 0l0 1.75q0.75 -1.03125 1.671875 -1.546875q0.921875 -0.515625 2.25 -0.515625q1.734375 0 3.046875 0.890625q1.328125 0.890625 2.0 2.515625q0.671875 1.625 0.671875 3.546875q0 2.078125 -0.75 3.734375q-0.734375 1.65625 -2.15625 2.546875q-1.40625 0.890625 -2.984375 0.890625q-1.140625 0 -2.046875 -0.484375q-0.90625 -0.484375 -1.5 -1.234375l0 6.578125l-2.28125 0zm2.078125 -11.84375q0 2.609375 1.046875 3.859375q1.0625 1.234375 2.5625 1.234375q1.515625 0 2.609375 -1.28125q1.09375 -1.296875 1.09375 -4.015625q0 -2.578125 -1.0625 -3.859375q-1.0625 -1.28125 -2.546875 -1.28125q-1.453125 0 -2.578125 1.375q-1.125 1.359375 -1.125 3.96875zm21.220398 5.0q-1.265625 1.09375 -2.453125 1.546875q-1.171875 0.4375 -2.515625 0.4375q-2.234375 0 -3.4375 -1.09375q-1.1875 -1.09375 -1.1875 -2.78125q0 -0.984375 0.453125 -1.796875q0.453125 -0.828125 1.1875 -1.328125q0.734375 -0.5 1.640625 -0.75q0.671875 -0.1875 2.03125 -0.34375q2.78125 -0.328125 4.09375 -0.796875q0.015625 -0.46875 0.015625 -0.59375q0 -1.390625 -0.65625 -1.96875q-0.875 -0.78125 -2.609375 -0.78125q-1.609375 0 -2.390625 0.578125q-0.765625 0.5625 -1.125 2.0l-2.25 -0.3125q0.3125 -1.4375 1.015625 -2.3125q0.703125 -0.890625 2.015625 -1.359375q1.328125 -0.484375 3.0625 -0.484375q1.734375 0 2.8125 0.40625q1.078125 0.40625 1.59375 1.03125q0.515625 0.609375 0.71875 1.546875q0.109375 0.59375 0.109375 2.109375l0 3.0625q0 3.1875 0.140625 4.03125q0.15625 0.84375 0.578125 1.625l-2.390625 0q-0.359375 -0.71875 -0.453125 -1.671875zm-0.1875 -5.109375q-1.25 0.515625 -3.75 0.875q-1.40625 0.203125 -2.0 0.453125q-0.578125 0.25 -0.890625 0.75q-0.3125 0.484375 -0.3125 1.078125q0 0.921875 0.6875 1.53125q0.6875 0.609375 2.03125 0.609375q1.3125 0 2.34375 -0.578125q1.03125 -0.578125 1.515625 -1.59375q0.375 -0.765625 0.375 -2.28125l0 -0.84375zm5.861023 6.78125l0 -13.5l2.0625 0l0 1.90625q1.484375 -2.21875 4.296875 -2.21875q1.21875 0 2.234375 0.4375q1.03125 0.4375 1.53125 1.15625q0.515625 0.703125 0.71875 1.6875q0.125 0.640625 0.125 2.21875l0 8.3125l-2.28125 0l0 -8.21875q0 -1.390625 -0.265625 -2.078125q-0.265625 -0.703125 -0.953125 -1.109375q-0.671875 -0.421875 -1.59375 -0.421875q-1.46875 0 -2.53125 0.9375q-1.0625 0.921875 -1.0625 3.515625l0 7.375l-2.28125 0zm14.376709 5.203125l-0.25 -2.15625q0.75 0.203125 1.3125 0.203125q0.765625 0 1.21875 -0.25q0.453125 -0.25 0.75 -0.703125q0.21875 -0.34375 0.703125 -1.71875q0.0625 -0.1875 0.203125 -0.546875l-5.125 -13.53125l2.46875 0l2.8125 7.8125q0.546875 1.484375 0.96875 3.125q0.40625 -1.578125 0.953125 -3.078125l2.875 -7.859375l2.296875 0l-5.140625 13.734375q-0.828125 2.21875 -1.28125 3.0625q-0.609375 1.125 -1.40625 1.65625q-0.78125 0.53125 -1.875 0.53125q-0.671875 0 -1.484375 -0.28125z" fill-rule="nonzero"/><path fill="#000000" d="m544.9935 269.28992l0 -13.500015l2.0625 0l0 1.9062653q1.484375 -2.2187653 4.296875 -2.2187653q1.21875 0 2.234375 0.4375q1.03125 0.43751526 1.53125 1.1562653q0.515625 0.703125 0.71875 1.6875q0.125 0.640625 0.125 2.21875l0 8.3125l-2.28125 0l0 -8.21875q0 -1.390625 -0.265625 -2.078125q-0.265625 -0.703125 -0.953125 -1.109375q-0.671875 -0.421875 -1.59375 -0.421875q-1.46875 0 -2.53125 0.9375q-1.0625 0.921875 -1.0625 3.515625l0 7.375l-2.28125 0zm23.736023 -4.34375l2.359375 0.28125q-0.5625 2.078125 -2.078125 3.234375q-1.515625 1.140625 -3.859375 1.140625q-2.96875 0 -4.703125 -1.828125q-1.734375 -1.828125 -1.734375 -5.125q0 -3.40625 1.75 -5.28125q1.765625 -1.8906403 4.5625 -1.8906403q2.703125 0 4.421875 1.8437653q1.71875 1.84375 1.71875 5.1875q0 0.203125 -0.015625 0.609375l-10.078125 0q0.140625 2.234375 1.265625 3.421875q1.125 1.171875 2.828125 1.171875q1.25 0 2.140625 -0.65625q0.890625 -0.671875 1.421875 -2.109375zm-7.515625 -3.703125l7.53125 0q-0.15625 -1.703125 -0.859375 -2.5625q-1.09375 -1.3125 -2.84375 -1.3125q-1.578125 0 -2.65625 1.0625q-1.0625 1.046875 -1.171875 2.8125zm22.001648 3.703125l2.359375 0.28125q-0.5625 2.078125 -2.078125 3.234375q-1.515625 1.140625 -3.859375 1.140625q-2.96875 0 -4.703125 -1.828125q-1.734375 -1.828125 -1.734375 -5.125q0 -3.40625 1.75 -5.28125q1.765625 -1.8906403 4.5625 -1.8906403q2.703125 0 4.421875 1.8437653q1.71875 1.84375 1.71875 5.1875q0 0.203125 -0.015625 0.609375l-10.078125 0q0.140625 2.234375 1.265625 3.421875q1.125 1.171875 2.828125 1.171875q1.25 0 2.140625 -0.65625q0.890625 -0.671875 1.421875 -2.109375zm-7.515625 -3.703125l7.53125 0q-0.15625 -1.703125 -0.859375 -2.5625q-1.09375 -1.3125 -2.84375 -1.3125q-1.578125 0 -2.65625 1.0625q-1.0625 1.046875 -1.171875 2.8125zm21.517273 8.046875l0 -1.703125q-1.296875 2.015625 -3.78125 2.015625q-1.609375 0 -2.96875 -0.890625q-1.359375 -0.890625 -2.109375 -2.484375q-0.734375 -1.609375 -0.734375 -3.671875q0 -2.03125 0.671875 -3.671875q0.671875 -1.65625 2.015625 -2.53125q1.359375 -0.87501526 3.015625 -0.87501526q1.234375 0 2.1875 0.515625q0.953125 0.51564026 1.546875 1.3437653l0 -6.6875153l2.28125 0l0 18.64064l-2.125 0zm-7.234375 -6.734375q0 2.59375 1.09375 3.875q1.09375 1.28125 2.578125 1.28125q1.5 0 2.546875 -1.21875q1.046875 -1.234375 1.046875 -3.75q0 -2.78125 -1.078125 -4.078125q-1.0625 -1.296875 -2.625 -1.296875q-1.515625 0 -2.546875 1.25q-1.015625 1.25 -1.015625 3.9375zm12.032959 2.703125l2.265625 -0.359375q0.1875 1.359375 1.0625 2.09375q0.875 0.71875 2.4375 0.71875q1.578125 0 2.34375 -0.640625q0.765625 -0.640625 0.765625 -1.5q0 -0.78125 -0.6875 -1.234375q-0.46875 -0.296875 -2.328125 -0.765625q-2.515625 -0.640625 -3.5 -1.09375q-0.96875 -0.46875 -1.46875 -1.28125q-0.5 -0.828125 -0.5 -1.828125q0 -0.90625 0.40625 -1.671875q0.421875 -0.765625 1.125 -1.28125q0.53125 -0.390625 1.453125 -0.65626526q0.921875 -0.28125 1.984375 -0.28125q1.59375 0 2.796875 0.46875q1.203125 0.45314026 1.765625 1.2343903q0.578125 0.78125 0.796875 2.09375l-2.25 0.296875q-0.140625 -1.046875 -0.875 -1.625q-0.734375 -0.578125 -2.0625 -0.578125q-1.578125 0 -2.265625 0.515625q-0.671875 0.515625 -0.671875 1.21875q0 0.453125 0.28125 0.796875q0.28125 0.375 0.875 0.609375q0.34375 0.140625 2.03125 0.59375q2.421875 0.640625 3.375 1.0625q0.96875 0.40625 1.515625 1.203125q0.546875 0.78125 0.546875 1.953125q0 1.140625 -0.671875 2.15625q-0.65625 1.015625 -1.921875 1.578125q-1.25 0.546875 -2.84375 0.546875q-2.640625 0 -4.015625 -1.09375q-1.375 -1.09375 -1.765625 -3.25zm21.07257 9.234375l-0.25 -2.15625q0.75 0.203125 1.3125 0.203125q0.765625 0 1.21875 -0.25q0.453125 -0.25 0.75 -0.703125q0.21875 -0.34375 0.703125 -1.71875q0.0625 -0.1875 0.203125 -0.546875l-5.125 -13.531265l2.46875 0l2.8125 7.8125153q0.546875 1.484375 0.96875 3.125q0.40625 -1.578125 0.953125 -3.078125l2.875 -7.8593903l2.296875 0l-5.140625 13.73439q-0.828125 2.21875 -1.28125 3.0625q-0.609375 1.125 -1.40625 1.65625q-0.78125 0.53125 -1.875 0.53125q-0.671875 0 -1.484375 -0.28125zm12.2734375 -11.953125q0 -3.75 2.09375 -5.5625q1.734375 -1.5000153 4.25 -1.5000153q2.78125 0 4.546875 1.8281403q1.765625 1.828125 1.765625 5.046875q0 2.59375 -0.78125 4.09375q-0.78125 1.5 -2.28125 2.328125q-1.484375 0.828125 -3.25 0.828125q-2.84375 0 -4.59375 -1.8125q-1.75 -1.828125 -1.75 -5.25zm2.359375 0q0 2.59375 1.125 3.890625q1.140625 1.28125 2.859375 1.28125q1.703125 0 2.828125 -1.296875q1.140625 -1.296875 1.140625 -3.953125q0 -2.5 -1.140625 -3.796875q-1.140625 -1.296875 -2.828125 -1.296875q-1.71875 0 -2.859375 1.296875q-1.125 1.28125 -1.125 3.875zm21.829773 6.75l0 -1.984375q-1.578125 2.296875 -4.28125 2.296875q-1.1875 0 -2.234375 -0.453125q-1.03125 -0.46875 -1.53125 -1.15625q-0.5 -0.703125 -0.703125 -1.703125q-0.140625 -0.671875 -0.140625 -2.140625l0 -8.35939l2.28125 0l0 7.4843903q0 1.796875 0.140625 2.421875q0.21875 0.890625 0.90625 1.40625q0.703125 0.515625 1.734375 0.515625q1.03125 0 1.9375 -0.515625q0.90625 -0.53125 1.28125 -1.4375q0.375 -0.921875 0.375 -2.640625l0 -7.2343903l2.28125 0l0 13.500015l-2.046875 0zm17.878967 -2.046875l0.328125 2.015625q-0.96875 0.203125 -1.734375 0.203125q-1.25 0 -1.9375 -0.390625q-0.671875 -0.390625 -0.953125 -1.03125q-0.28125 -0.640625 -0.28125 -2.703125l0 -7.765625l-1.6875 0l0 -1.7812653l1.6875 0l0 -3.359375l2.265625 -1.359375l0 4.71875l2.3125 0l0 1.7812653l-2.3125 0l0 7.890625q0 0.984375 0.125 1.265625q0.125 0.265625 0.390625 0.4375q0.28125 0.171875 0.78125 0.171875q0.390625 0 1.015625 -0.09375zm1.3773193 -4.703125q0 -3.75 2.09375 -5.5625q1.734375 -1.5000153 4.25 -1.5000153q2.78125 0 4.546875 1.8281403q1.765625 1.828125 1.765625 5.046875q0 2.59375 -0.78125 4.09375q-0.78125 1.5 -2.28125 2.328125q-1.484375 0.828125 -3.25 0.828125q-2.84375 0 -4.59375 -1.8125q-1.75 -1.828125 -1.75 -5.25zm2.359375 0q0 2.59375 1.125 3.890625q1.140625 1.28125 2.859375 1.28125q1.703125 0 2.828125 -1.296875q1.140625 -1.296875 1.140625 -3.953125q0 -2.5 -1.140625 -3.796875q-1.140625 -1.296875 -2.828125 -1.296875q-1.71875 0 -2.859375 1.296875q-1.125 1.28125 -1.125 3.875z" fill-rule="nonzero"/><path fill="#000000" d="m563.2429 298.87436q-1.265625 1.09375 -2.453125 1.546875q-1.171875 0.4375 -2.515625 0.4375q-2.234375 0 -3.4375 -1.09375q-1.1875 -1.09375 -1.1875 -2.78125q0 -0.984375 0.453125 -1.796875q0.453125 -0.828125 1.1875 -1.328125q0.734375 -0.5 1.640625 -0.75q0.671875 -0.1875 2.03125 -0.34375q2.78125 -0.328125 4.09375 -0.796875q0.015625 -0.46875 0.015625 -0.59375q0 -1.390625 -0.65625 -1.96875q-0.875 -0.78125 -2.609375 -0.78125q-1.609375 0 -2.390625 0.578125q-0.765625 0.5625 -1.125 2.0l-2.25 -0.3125q0.3125 -1.4375 1.015625 -2.3125q0.703125 -0.890625 2.015625 -1.359375q1.328125 -0.484375 3.0625 -0.484375q1.734375 0 2.8125 0.40625q1.078125 0.40625 1.59375 1.03125q0.515625 0.609375 0.71875 1.546875q0.109375 0.59375 0.109375 2.109375l0 3.0625q0 3.1875 0.140625 4.03125q0.15625 0.84375 0.578125 1.625l-2.390625 0q-0.359375 -0.71875 -0.453125 -1.671875zm-0.1875 -5.109375q-1.25 0.515625 -3.75 0.875q-1.40625 0.203125 -2.0 0.453125q-0.578125 0.25 -0.890625 0.75q-0.3125 0.484375 -0.3125 1.078125q0 0.921875 0.6875 1.53125q0.6875 0.609375 2.03125 0.609375q1.3125 0 2.34375 -0.578125q1.03125 -0.578125 1.515625 -1.59375q0.375 -0.765625 0.375 -2.28125l0 -0.84375zm14.673523 1.828125l2.25 0.296875q-0.375 2.328125 -1.890625 3.65625q-1.515625 1.3125 -3.734375 1.3125q-2.765625 0 -4.453125 -1.8125q-1.6875 -1.8125 -1.6875 -5.203125q0 -2.1875 0.71875 -3.828125q0.734375 -1.640625 2.21875 -2.453125q1.484375 -0.828125 3.21875 -0.828125q2.203125 0 3.59375 1.109375q1.40625 1.109375 1.796875 3.171875l-2.21875 0.34375q-0.328125 -1.375 -1.140625 -2.046875q-0.796875 -0.6875 -1.9375 -0.6875q-1.734375 0 -2.8125 1.234375q-1.078125 1.234375 -1.078125 3.921875q0 2.71875 1.03125 3.953125q1.046875 1.234375 2.734375 1.234375q1.34375 0 2.234375 -0.828125q0.90625 -0.828125 1.15625 -2.546875zm13.0234375 0l2.25 0.296875q-0.375 2.328125 -1.890625 3.65625q-1.515625 1.3125 -3.734375 1.3125q-2.765625 0 -4.453125 -1.8125q-1.6875 -1.8125 -1.6875 -5.203125q0 -2.1875 0.71875 -3.828125q0.734375 -1.640625 2.21875 -2.453125q1.484375 -0.828125 3.21875 -0.828125q2.203125 0 3.59375 1.109375q1.40625 1.109375 1.796875 3.171875l-2.21875 0.34375q-0.328125 -1.375 -1.140625 -2.046875q-0.796875 -0.6875 -1.9375 -0.6875q-1.734375 0 -2.8125 1.234375q-1.078125 1.234375 -1.078125 3.921875q0 2.71875 1.03125 3.953125q1.046875 1.234375 2.734375 1.234375q1.34375 0 2.234375 -0.828125q0.90625 -0.828125 1.15625 -2.546875zm3.3515625 -1.796875q0 -3.75 2.09375 -5.5625q1.734375 -1.5 4.25 -1.5q2.78125 0 4.546875 1.828125q1.765625 1.828125 1.765625 5.046875q0 2.59375 -0.78125 4.09375q-0.78125 1.5 -2.28125 2.328125q-1.484375 0.828125 -3.25 0.828125q-2.84375 0 -4.59375 -1.8125q-1.75 -1.828125 -1.75 -5.25zm2.359375 0q0 2.59375 1.125 3.890625q1.140625 1.28125 2.859375 1.28125q1.703125 0 2.828125 -1.296875q1.140625 -1.296875 1.140625 -3.953125q0 -2.5 -1.140625 -3.796875q-1.140625 -1.296875 -2.828125 -1.296875q-1.71875 0 -2.859375 1.296875q-1.125 1.28125 -1.125 3.875zm12.986084 6.75l0 -13.5l2.046875 0l0 1.890625q0.640625 -1.0 1.6875 -1.59375q1.0625 -0.609375 2.40625 -0.609375q1.5 0 2.453125 0.625q0.96875 0.625 1.359375 1.734375q1.609375 -2.359375 4.171875 -2.359375q2.015625 0 3.09375 1.109375q1.078125 1.109375 1.078125 3.4375l0 9.265625l-2.28125 0l0 -8.515625q0 -1.359375 -0.21875 -1.96875q-0.21875 -0.609375 -0.8125 -0.96875q-0.578125 -0.375 -1.359375 -0.375q-1.4375 0 -2.375 0.953125q-0.9375 0.9375 -0.9375 3.03125l0 7.84375l-2.296875 0l0 -8.78125q0 -1.515625 -0.5625 -2.28125q-0.546875 -0.765625 -1.828125 -0.765625q-0.953125 0 -1.78125 0.515625q-0.8125 0.5 -1.1875 1.484375q-0.375 0.96875 -0.375 2.828125l0 7.0l-2.28125 0zm21.697205 5.171875l0 -18.671875l2.078125 0l0 1.75q0.75 -1.03125 1.671875 -1.546875q0.921875 -0.515625 2.25 -0.515625q1.734375 0 3.046875 0.890625q1.328125 0.890625 2.0 2.515625q0.671875 1.625 0.671875 3.546875q0 2.078125 -0.75 3.734375q-0.734375 1.65625 -2.15625 2.546875q-1.40625 0.890625 -2.984375 0.890625q-1.140625 0 -2.046875 -0.484375q-0.90625 -0.484375 -1.5 -1.234375l0 6.578125l-2.28125 0zm2.078125 -11.84375q0 2.609375 1.046875 3.859375q1.0625 1.234375 2.5625 1.234375q1.515625 0 2.609375 -1.28125q1.09375 -1.296875 1.09375 -4.015625q0 -2.578125 -1.0625 -3.859375q-1.0625 -1.28125 -2.546875 -1.28125q-1.453125 0 -2.578125 1.375q-1.125 1.359375 -1.125 3.96875zm12.361084 6.671875l0 -18.640625l2.28125 0l0 18.640625l-2.28125 0zm5.849243 -16.015625l0 -2.625l2.28125 0l0 2.625l-2.28125 0zm0 16.015625l0 -13.5l2.28125 0l0 13.5l-2.28125 0zm4.849304 -4.03125l2.265625 -0.359375q0.1875 1.359375 1.0625 2.09375q0.875 0.71875 2.4375 0.71875q1.578125 0 2.34375 -0.640625q0.765625 -0.640625 0.765625 -1.5q0 -0.78125 -0.6875 -1.234375q-0.46875 -0.296875 -2.328125 -0.765625q-2.515625 -0.640625 -3.5 -1.09375q-0.96875 -0.46875 -1.46875 -1.28125q-0.5 -0.828125 -0.5 -1.828125q0 -0.90625 0.40625 -1.671875q0.421875 -0.765625 1.125 -1.28125q0.53125 -0.390625 1.453125 -0.65625q0.921875 -0.28125 1.984375 -0.28125q1.59375 0 2.796875 0.46875q1.203125 0.453125 1.765625 1.234375q0.578125 0.78125 0.796875 2.09375l-2.25 0.296875q-0.140625 -1.046875 -0.875 -1.625q-0.734375 -0.578125 -2.0625 -0.578125q-1.578125 0 -2.265625 0.515625q-0.671875 0.515625 -0.671875 1.21875q0 0.453125 0.28125 0.796875q0.28125 0.375 0.875 0.609375q0.34375 0.140625 2.03125 0.59375q2.421875 0.640625 3.375 1.0625q0.96875 0.40625 1.515625 1.203125q0.546875 0.78125 0.546875 1.953125q0 1.140625 -0.671875 2.15625q-0.65625 1.015625 -1.921875 1.578125q-1.25 0.546875 -2.84375 0.546875q-2.640625 0 -4.015625 -1.09375q-1.375 -1.09375 -1.765625 -3.25zm13.9453125 4.03125l0 -18.640625l2.28125 0l0 6.6875q1.609375 -1.859375 4.046875 -1.859375q1.5 0 2.609375 0.59375q1.109375 0.59375 1.578125 1.640625q0.484375 1.03125 0.484375 3.015625l0 8.5625l-2.296875 0l0 -8.5625q0 -1.71875 -0.75 -2.5q-0.734375 -0.78125 -2.09375 -0.78125q-1.015625 0 -1.921875 0.53125q-0.890625 0.53125 -1.28125 1.4375q-0.375 0.890625 -0.375 2.484375l0 7.390625l-2.28125 0z" fill-rule="nonzero"/><path fill="#000000" fill-opacity="0.0" d="m65.43448 200.02853l257.25986 0l0 90.20474l-257.25986 0z" fill-rule="evenodd"/><path fill="#000000" d="m98.70992 238.03358l-4.953125 -18.640625l2.53125 0l2.84375 12.21875q0.453125 1.921875 0.78125 3.8125q0.71875 -2.984375 0.84375 -3.4375l3.546875 -12.59375l2.984375 0l2.671875 9.4375q1.0 3.5 1.4375 6.59375q0.359375 -1.765625 0.9375 -4.0625l2.921875 -11.96875l2.484375 0l-5.125 18.640625l-2.375 0l-3.921875 -14.203125q-0.5 -1.78125 -0.59375 -2.1875q-0.28125 1.28125 -0.546875 2.1875l-3.953125 14.203125l-2.515625 0zm21.037415 0l0 -18.640625l2.28125 0l0 6.6875q1.609375 -1.859375 4.046875 -1.859375q1.5 0 2.6093826 0.59375q1.109375 0.59375 1.578125 1.640625q0.484375 1.03125 0.484375 3.015625l0 8.5625l-2.296875 0l0 -8.5625q0 -1.71875 -0.7500076 -2.5q-0.734375 -0.78125 -2.09375 -0.78125q-1.015625 0 -1.921875 0.53125q-0.890625 0.53125 -1.28125 1.4375q-0.375 0.890625 -0.375 2.484375l0 7.390625l-2.28125 0zm23.298546 -1.671875q-1.265625 1.09375 -2.453125 1.546875q-1.171875 0.4375 -2.515625 0.4375q-2.234375 0 -3.4375 -1.09375q-1.1875 -1.09375 -1.1875 -2.78125q0 -0.984375 0.453125 -1.796875q0.453125 -0.828125 1.1875 -1.328125q0.734375 -0.5 1.640625 -0.75q0.671875 -0.1875 2.03125 -0.34375q2.78125 -0.328125 4.09375 -0.796875q0.015625 -0.46875 0.015625 -0.59375q0 -1.390625 -0.65625 -1.96875q-0.875 -0.78125 -2.609375 -0.78125q-1.609375 0 -2.390625 0.578125q-0.765625 0.5625 -1.125 2.0l-2.25 -0.3125q0.3125 -1.4375 1.015625 -2.3125q0.703125 -0.890625 2.015625 -1.359375q1.328125 -0.484375 3.0625 -0.484375q1.734375 0 2.8125 0.40625q1.078125 0.40625 1.59375 1.03125q0.515625 0.609375 0.71875 1.546875q0.109375 0.59375 0.109375 2.109375l0 3.0625q0 3.1875 0.140625 4.03125q0.15625 0.84375 0.578125 1.625l-2.390625 0q-0.359375 -0.71875 -0.453125 -1.671875zm-0.1875 -5.109375q-1.25 0.515625 -3.75 0.875q-1.40625 0.203125 -2.0 0.453125q-0.578125 0.25 -0.890625 0.75q-0.3125 0.484375 -0.3125 1.078125q0 0.921875 0.6875 1.53125q0.6875 0.609375 2.03125 0.609375q1.3125 0 2.34375 -0.578125q1.03125 -0.578125 1.515625 -1.59375q0.375 -0.765625 0.375 -2.28125l0 -0.84375zm10.861038 4.734375l0.328125 2.015625q-0.96875 0.203125 -1.734375 0.203125q-1.25 0 -1.9375 -0.390625q-0.671875 -0.390625 -0.953125 -1.03125q-0.28125 -0.640625 -0.28125 -2.703125l0 -7.765625l-1.6875 0l0 -1.78125l1.6875 0l0 -3.359375l2.265625 -1.359375l0 4.71875l2.3125 0l0 1.78125l-2.3125 0l0 7.890625q0 0.984375 0.125 1.265625q0.125 0.265625 0.390625 0.4375q0.28125 0.171875 0.78125 0.171875q0.390625 0 1.015625 -0.09375zm9.363953 7.25l-0.25 -2.15625q0.75 0.203125 1.3125 0.203125q0.765625 0 1.21875 -0.25q0.453125 -0.25 0.75 -0.703125q0.21875 -0.34375 0.703125 -1.71875q0.0625 -0.1875 0.203125 -0.546875l-5.125 -13.53125l2.46875 0l2.8125 7.8125q0.546875 1.484375 0.96875 3.125q0.40625 -1.578125 0.953125 -3.078125l2.875 -7.859375l2.296875 0l-5.140625 13.734375q-0.828125 2.21875 -1.28125 3.0625q-0.609375 1.125 -1.40625 1.65625q-0.78125 0.53125 -1.875 0.53125q-0.671875 0 -1.484375 -0.28125zm12.2734375 -11.953125q0 -3.75 2.09375 -5.5625q1.734375 -1.5 4.25 -1.5q2.78125 0 4.546875 1.828125q1.765625 1.828125 1.765625 5.046875q0 2.59375 -0.78125 4.09375q-0.78125 1.5 -2.28125 2.328125q-1.484375 0.828125 -3.25 0.828125q-2.84375 0 -4.59375 -1.8125q-1.75 -1.828125 -1.75 -5.25zm2.359375 0q0 2.59375 1.125 3.890625q1.140625 1.28125 2.859375 1.28125q1.703125 0 2.828125 -1.296875q1.140625 -1.296875 1.140625 -3.953125q0 -2.5 -1.140625 -3.796875q-1.140625 -1.296875 -2.828125 -1.296875q-1.71875 0 -2.859375 1.296875q-1.125 1.28125 -1.125 3.875zm21.829773 6.75l0 -1.984375q-1.578125 2.296875 -4.28125 2.296875q-1.1875 0 -2.2343597 -0.453125q-1.03125 -0.46875 -1.53125 -1.15625q-0.5 -0.703125 -0.703125 -1.703125q-0.140625 -0.671875 -0.140625 -2.140625l0 -8.359375l2.28125 0l0 7.484375q0 1.796875 0.140625 2.421875q0.21875 0.890625 0.90623474 1.40625q0.703125 0.515625 1.734375 0.515625q1.03125 0 1.9375 -0.515625q0.90625 -0.53125 1.28125 -1.4375q0.375 -0.921875 0.375 -2.640625l0 -7.234375l2.28125 0l0 13.5l-2.046875 0zm15.363342 0l-4.125 -13.5l2.359375 0l2.15625 7.796875l0.796875 2.890625q0.046875 -0.21875 0.703125 -2.78125l2.140625 -7.90625l2.359375 0l2.015625 7.828125l0.6875 2.578125l0.765625 -2.609375l2.3125 -7.796875l2.234375 0l-4.21875 13.5l-2.390625 0l-2.140625 -8.09375l-0.53125 -2.296875l-2.734375 10.390625l-2.390625 0zm25.138336 -1.671875q-1.265625 1.09375 -2.453125 1.546875q-1.171875 0.4375 -2.515625 0.4375q-2.234375 0 -3.4375 -1.09375q-1.1875 -1.09375 -1.1875 -2.78125q0 -0.984375 0.453125 -1.796875q0.453125 -0.828125 1.1875 -1.328125q0.734375 -0.5 1.640625 -0.75q0.671875 -0.1875 2.03125 -0.34375q2.78125 -0.328125 4.09375 -0.796875q0.015625 -0.46875 0.015625 -0.59375q0 -1.390625 -0.65625 -1.96875q-0.875 -0.78125 -2.609375 -0.78125q-1.609375 0 -2.390625 0.578125q-0.765625 0.5625 -1.125 2.0l-2.25 -0.3125q0.3125 -1.4375 1.015625 -2.3125q0.703125 -0.890625 2.015625 -1.359375q1.328125 -0.484375 3.0625 -0.484375q1.734375 0 2.8125 0.40625q1.078125 0.40625 1.59375 1.03125q0.515625 0.609375 0.71875 1.546875q0.109375 0.59375 0.109375 2.109375l0 3.0625q0 3.1875 0.140625 4.03125q0.15625 0.84375 0.578125 1.625l-2.390625 0q-0.359375 -0.71875 -0.453125 -1.671875zm-0.1875 -5.109375q-1.25 0.515625 -3.75 0.875q-1.40625 0.203125 -2.0 0.453125q-0.578125 0.25 -0.890625 0.75q-0.3125 0.484375 -0.3125 1.078125q0 0.921875 0.6875 1.53125q0.6875 0.609375 2.03125 0.609375q1.3125 0 2.34375 -0.578125q1.03125 -0.578125 1.515625 -1.59375q0.375 -0.765625 0.375 -2.28125l0 -0.84375zm5.8610535 6.78125l0 -13.5l2.0625 0l0 1.90625q1.484375 -2.21875 4.296875 -2.21875q1.21875 0 2.234375 0.4375q1.03125 0.4375 1.53125 1.15625q0.515625 0.703125 0.71875 1.6875q0.125 0.640625 0.125 2.21875l0 8.3125l-2.28125 0l0 -8.21875q0 -1.390625 -0.265625 -2.078125q-0.265625 -0.703125 -0.953125 -1.109375q-0.671875 -0.421875 -1.59375 -0.421875q-1.46875 0 -2.53125 0.9375q-1.0625 0.921875 -1.0625 3.515625l0 7.375l-2.28125 0zm19.486023 -2.046875l0.328125 2.015625q-0.96875 0.203125 -1.734375 0.203125q-1.25 0 -1.9375 -0.390625q-0.671875 -0.390625 -0.953125 -1.03125q-0.28125 -0.640625 -0.28125 -2.703125l0 -7.765625l-1.6875 0l0 -1.78125l1.6875 0l0 -3.359375l2.265625 -1.359375l0 4.71875l2.3125 0l0 1.78125l-2.3125 0l0 7.890625q0 0.984375 0.125 1.265625q0.125 0.265625 0.390625 0.4375q0.28125 0.171875 0.78125 0.171875q0.390625 0 1.015625 -0.09375zm14.473328 0l0.328125 2.015625q-0.96875 0.203125 -1.734375 0.203125q-1.25 0 -1.9375 -0.390625q-0.671875 -0.390625 -0.953125 -1.03125q-0.28125 -0.640625 -0.28125 -2.703125l0 -7.765625l-1.6875 0l0 -1.78125l1.6875 0l0 -3.359375l2.265625 -1.359375l0 4.71875l2.3125 0l0 1.78125l-2.3125 0l0 7.890625q0 0.984375 0.125 1.265625q0.125 0.265625 0.390625 0.4375q0.28125 0.171875 0.78125 0.171875q0.390625 0 1.015625 -0.09375zm1.3772888 -4.703125q0 -3.75 2.09375 -5.5625q1.734375 -1.5 4.25 -1.5q2.78125 0 4.546875 1.828125q1.765625 1.828125 1.765625 5.046875q0 2.59375 -0.78125 4.09375q-0.78125 1.5 -2.28125 2.328125q-1.484375 0.828125 -3.25 0.828125q-2.84375 0 -4.59375 -1.8125q-1.75 -1.828125 -1.75 -5.25zm2.359375 0q0 2.59375 1.125 3.890625q1.140625 1.28125 2.859375 1.28125q1.703125 0 2.828125 -1.296875q1.140625 -1.296875 1.140625 -3.953125q0 -2.5 -1.140625 -3.796875q-1.140625 -1.296875 -2.828125 -1.296875q-1.71875 0 -2.859375 1.296875q-1.125 1.28125 -1.125 3.875z" fill-rule="nonzero"/><path fill="#000000" d="m139.453 267.61804q-1.265625 1.09375 -2.453125 1.546875q-1.171875 0.4375 -2.515625 0.4375q-2.234375 0 -3.4375 -1.09375q-1.1875 -1.09375 -1.1875 -2.78125q0 -0.984375 0.453125 -1.796875q0.453125 -0.828125 1.1875 -1.328125q0.734375 -0.5 1.640625 -0.75q0.671875 -0.1875 2.03125 -0.34375q2.78125 -0.328125 4.09375 -0.796875q0.015625 -0.46875 0.015625 -0.59375q0 -1.390625 -0.65625 -1.96875q-0.875 -0.78125 -2.609375 -0.78125q-1.609375 0 -2.390625 0.578125q-0.765625 0.5625 -1.125 2.0l-2.25 -0.3125q0.3125 -1.4375 1.015625 -2.3125q0.703125 -0.890625 2.015625 -1.3593903q1.328125 -0.484375 3.0625 -0.484375q1.734375 0 2.8125 0.40625q1.078125 0.40626526 1.59375 1.0312653q0.515625 0.609375 0.71875 1.546875q0.109375 0.59375 0.109375 2.109375l0 3.0625q0 3.1875 0.140625 4.03125q0.15625 0.84375 0.578125 1.625l-2.390625 0q-0.359375 -0.71875 -0.453125 -1.671875zm-0.1875 -5.109375q-1.25 0.515625 -3.75 0.875q-1.40625 0.203125 -2.0 0.453125q-0.578125 0.25 -0.890625 0.75q-0.3125 0.484375 -0.3125 1.078125q0 0.921875 0.6875 1.53125q0.6875 0.609375 2.03125 0.609375q1.3125 0 2.34375 -0.578125q1.03125 -0.578125 1.515625 -1.59375q0.375 -0.765625 0.375 -2.28125l0 -0.84375zm14.673538 1.828125l2.25 0.296875q-0.375 2.328125 -1.890625 3.65625q-1.515625 1.3125 -3.734375 1.3125q-2.765625 0 -4.453125 -1.8125q-1.6875 -1.8125 -1.6875 -5.203125q0 -2.1875 0.71875 -3.828125q0.734375 -1.640625 2.21875 -2.453125q1.484375 -0.82814026 3.21875 -0.82814026q2.203125 0 3.59375 1.1093903q1.40625 1.109375 1.796875 3.171875l-2.21875 0.34375q-0.328125 -1.375 -1.140625 -2.046875q-0.796875 -0.6875 -1.9375 -0.6875q-1.734375 0 -2.8125 1.234375q-1.078125 1.234375 -1.078125 3.921875q0 2.71875 1.03125 3.953125q1.046875 1.234375 2.734375 1.234375q1.34375 0 2.234375 -0.828125q0.90625 -0.828125 1.15625 -2.546875zm13.0234375 0l2.25 0.296875q-0.375 2.328125 -1.890625 3.65625q-1.515625 1.3125 -3.734375 1.3125q-2.765625 0 -4.453125 -1.8125q-1.6875 -1.8125 -1.6875 -5.203125q0 -2.1875 0.71875 -3.828125q0.734375 -1.640625 2.21875 -2.453125q1.484375 -0.82814026 3.21875 -0.82814026q2.203125 0 3.59375 1.1093903q1.40625 1.109375 1.796875 3.171875l-2.21875 0.34375q-0.328125 -1.375 -1.140625 -2.046875q-0.796875 -0.6875 -1.9375 -0.6875q-1.734375 0 -2.8125 1.234375q-1.078125 1.234375 -1.078125 3.921875q0 2.71875 1.03125 3.953125q1.046875 1.234375 2.734375 1.234375q1.34375 0 2.234375 -0.828125q0.90625 -0.828125 1.15625 -2.546875zm3.3515625 -1.796875q0 -3.75 2.09375 -5.5625q1.734375 -1.5000153 4.25 -1.5000153q2.78125 0 4.546875 1.8281403q1.765625 1.828125 1.765625 5.046875q0 2.59375 -0.78125 4.09375q-0.78125 1.5 -2.28125 2.328125q-1.484375 0.828125 -3.25 0.828125q-2.84375 0 -4.59375 -1.8125q-1.75 -1.828125 -1.75 -5.25zm2.359375 0q0 2.59375 1.125 3.890625q1.140625 1.28125 2.859375 1.28125q1.703125 0 2.828125 -1.296875q1.140625 -1.296875 1.140625 -3.953125q0 -2.5 -1.140625 -3.796875q-1.140625 -1.296875 -2.828125 -1.296875q-1.71875 0 -2.859375 1.296875q-1.125 1.28125 -1.125 3.875zm12.986038 6.75l0 -13.500015l2.046875 0l0 1.8906403q0.640625 -1.0 1.6875 -1.59375q1.0625 -0.60939026 2.40625 -0.60939026q1.5 0 2.453125 0.62501526q0.96875 0.625 1.359375 1.734375q1.609375 -2.3593903 4.171875 -2.3593903q2.015625 0 3.09375 1.1093903q1.078125 1.109375 1.078125 3.4375l0 9.265625l-2.28125 0l0 -8.515625q0 -1.359375 -0.21875 -1.96875q-0.21875 -0.609375 -0.8125 -0.96875q-0.578125 -0.375 -1.359375 -0.375q-1.4375 0 -2.375 0.953125q-0.9375 0.9375 -0.9375 3.03125l0 7.84375l-2.296875 0l0 -8.78125q0 -1.515625 -0.5625 -2.28125q-0.546875 -0.765625 -1.828125 -0.765625q-0.953125 0 -1.78125 0.515625q-0.8125 0.5 -1.1875 1.484375q-0.375 0.96875 -0.375 2.828125l0 7.0l-2.28125 0zm21.69725 5.171875l0 -18.67189l2.078125 0l0 1.7500153q0.75 -1.03125 1.671875 -1.5468903q0.921875 -0.515625 2.25 -0.515625q1.734375 0 3.046875 0.89064026q1.328125 0.890625 2.0 2.515625q0.671875 1.625 0.671875 3.546875q0 2.078125 -0.75 3.734375q-0.734375 1.65625 -2.15625 2.546875q-1.40625 0.890625 -2.984375 0.890625q-1.140625 0 -2.046875 -0.484375q-0.90625 -0.484375 -1.5 -1.234375l0 6.578125l-2.28125 0zm2.078125 -11.84375q0 2.609375 1.046875 3.859375q1.0625 1.234375 2.5625 1.234375q1.515625 0 2.609375 -1.28125q1.09375 -1.296875 1.09375 -4.015625q0 -2.578125 -1.0625 -3.859375q-1.0625 -1.28125 -2.546875 -1.28125q-1.453125 0 -2.578125 1.375q-1.125 1.359375 -1.125 3.96875zm12.361038 6.671875l0 -18.64064l2.28125 0l0 18.64064l-2.28125 0zm5.849289 -16.01564l0 -2.625l2.28125 0l0 2.625l-2.28125 0zm0 16.01564l0 -13.500015l2.28125 0l0 13.500015l-2.28125 0zm4.849289 -4.03125l2.265625 -0.359375q0.1875 1.359375 1.0625 2.09375q0.875 0.71875 2.4375 0.71875q1.578125 0 2.34375 -0.640625q0.765625 -0.640625 0.765625 -1.5q0 -0.78125 -0.6875 -1.234375q-0.46875 -0.296875 -2.328125 -0.765625q-2.515625 -0.640625 -3.5 -1.09375q-0.96875 -0.46875 -1.46875 -1.28125q-0.5 -0.828125 -0.5 -1.828125q0 -0.90625 0.40625 -1.671875q0.421875 -0.765625 1.125 -1.28125q0.53125 -0.390625 1.453125 -0.65626526q0.921875 -0.28125 1.984375 -0.28125q1.59375 0 2.796875 0.46875q1.203125 0.45314026 1.765625 1.2343903q0.578125 0.78125 0.796875 2.09375l-2.25 0.296875q-0.140625 -1.046875 -0.875 -1.625q-0.734375 -0.578125 -2.0625 -0.578125q-1.578125 0 -2.265625 0.515625q-0.671875 0.515625 -0.671875 1.21875q0 0.453125 0.28125 0.796875q0.28125 0.375 0.875 0.609375q0.34375 0.140625 2.03125 0.59375q2.421875 0.640625 3.375 1.0625q0.96875 0.40625 1.515625 1.203125q0.546875 0.78125 0.546875 1.953125q0 1.140625 -0.671875 2.15625q-0.65625 1.015625 -1.921875 1.578125q-1.25 0.546875 -2.84375 0.546875q-2.640625 0 -4.015625 -1.09375q-1.375 -1.09375 -1.765625 -3.25zm13.9453125 4.03125l0 -18.64064l2.28125 0l0 6.6875153q1.609375 -1.8593903 4.046875 -1.8593903q1.5 0 2.609375 0.59376526q1.109375 0.59375 1.578125 1.640625q0.484375 1.03125 0.484375 3.015625l0 8.5625l-2.296875 0l0 -8.5625q0 -1.71875 -0.75 -2.5q-0.734375 -0.78125 -2.09375 -0.78125q-1.015625 0 -1.921875 0.53125q-0.890625 0.53125 -1.28125 1.4375q-0.375 0.890625 -0.375 2.484375l0 7.390625l-2.28125 0z" fill-rule="nonzero"/><path fill="#000000" fill-opacity="0.0" d="m193.3032 531.5588l423.77948 0l0 68.44098l-423.77948 0z" fill-rule="evenodd"/><path fill="#000000" d="m323.62775 569.56384l0 -16.4375l-6.140625 0l0 -2.203125l14.78125 0l0 2.203125l-6.171875 0l0 16.4375l-2.46875 0zm10.879211 0l0 -18.640625l2.28125 0l0 6.6875q1.609375 -1.859375 4.046875 -1.859375q1.5 0 2.609375 0.59375q1.109375 0.59375 1.578125 1.640625q0.484375 1.03125 0.484375 3.015625l0 8.5625l-2.296875 0l0 -8.5625q0 -1.71875 -0.75 -2.5q-0.734375 -0.78125 -2.09375 -0.78125q-1.015625 0 -1.921875 0.53125q-0.890625 0.53125 -1.28125 1.4375q-0.375 0.890625 -0.375 2.484375l0 7.390625l-2.28125 0zm23.736053 -4.34375l2.359375 0.28125q-0.5625 2.078125 -2.078125 3.234375q-1.515625 1.140625 -3.859375 1.140625q-2.96875 0 -4.703125 -1.828125q-1.734375 -1.828125 -1.734375 -5.125q0 -3.40625 1.75 -5.28125q1.765625 -1.890625 4.5625 -1.890625q2.703125 0 4.421875 1.84375q1.71875 1.84375 1.71875 5.1875q0 0.203125 -0.015625 0.609375l-10.078125 0q0.140625 2.234375 1.265625 3.421875q1.125 1.171875 2.828125 1.171875q1.25 0 2.140625 -0.65625q0.890625 -0.671875 1.421875 -2.109375zm-7.515625 -3.703125l7.53125 0q-0.15625 -1.703125 -0.859375 -2.5625q-1.09375 -1.3125 -2.84375 -1.3125q-1.578125 0 -2.65625 1.0625q-1.0625 1.046875 -1.171875 2.8125zm19.066437 4.015625l2.265625 -0.359375q0.1875 1.359375 1.0625 2.09375q0.875 0.71875 2.4375 0.71875q1.578125 0 2.34375 -0.640625q0.765625 -0.640625 0.765625 -1.5q0 -0.78125 -0.6875 -1.234375q-0.46875 -0.296875 -2.328125 -0.765625q-2.515625 -0.640625 -3.5 -1.09375q-0.96875 -0.46875 -1.46875 -1.28125q-0.5 -0.828125 -0.5 -1.828125q0 -0.90625 0.40625 -1.671875q0.421875 -0.765625 1.125 -1.28125q0.53125 -0.390625 1.453125 -0.65625q0.921875 -0.28125 1.984375 -0.28125q1.59375 0 2.796875 0.46875q1.203125 0.453125 1.765625 1.234375q0.578125 0.78125 0.796875 2.09375l-2.25 0.296875q-0.140625 -1.046875 -0.875 -1.625q-0.734375 -0.578125 -2.0625 -0.578125q-1.578125 0 -2.265625 0.515625q-0.671875 0.515625 -0.671875 1.21875q0 0.453125 0.28125 0.796875q0.28125 0.375 0.875 0.609375q0.34375 0.140625 2.03125 0.59375q2.421875 0.640625 3.375 1.0625q0.96875 0.40625 1.515625 1.203125q0.546875 0.78125 0.546875 1.953125q0 1.140625 -0.671875 2.15625q-0.65625 1.015625 -1.921875 1.578125q-1.25 0.546875 -2.84375 0.546875q-2.640625 0 -4.015625 -1.09375q-1.375 -1.09375 -1.765625 -3.25zm16.429688 4.03125l-4.125 -13.5l2.359375 0l2.15625 7.796875l0.796875 2.890625q0.046875 -0.21875 0.703125 -2.78125l2.140625 -7.90625l2.359375 0l2.015625 7.828125l0.6875 2.578125l0.765625 -2.609375l2.3125 -7.796875l2.234375 0l-4.21875 13.5l-2.390625 0l-2.140625 -8.09375l-0.53125 -2.296875l-2.734375 10.390625l-2.390625 0zm25.575867 -4.34375l2.359375 0.28125q-0.5625 2.078125 -2.078125 3.234375q-1.515625 1.140625 -3.859375 1.140625q-2.96875 0 -4.703125 -1.828125q-1.734375 -1.828125 -1.734375 -5.125q0 -3.40625 1.75 -5.28125q1.765625 -1.890625 4.5625 -1.890625q2.703125 0 4.421875 1.84375q1.71875 1.84375 1.71875 5.1875q0 0.203125 -0.015625 0.609375l-10.078125 0q0.140625 2.234375 1.265625 3.421875q1.125 1.171875 2.828125 1.171875q1.25 0 2.140625 -0.65625q0.890625 -0.671875 1.421875 -2.109375zm-7.515625 -3.703125l7.53125 0q-0.15625 -1.703125 -0.859375 -2.5625q-1.09375 -1.3125 -2.84375 -1.3125q-1.578125 0 -2.65625 1.0625q-1.0625 1.046875 -1.171875 2.8125zm22.001648 3.703125l2.359375 0.28125q-0.5625 2.078125 -2.078125 3.234375q-1.515625 1.140625 -3.859375 1.140625q-2.96875 0 -4.703125 -1.828125q-1.734375 -1.828125 -1.734375 -5.125q0 -3.40625 1.75 -5.28125q1.765625 -1.890625 4.5625 -1.890625q2.703125 0 4.421875 1.84375q1.71875 1.84375 1.71875 5.1875q0 0.203125 -0.015625 0.609375l-10.078125 0q0.140625 2.234375 1.265625 3.421875q1.125 1.171875 2.828125 1.171875q1.25 0 2.140625 -0.65625q0.890625 -0.671875 1.421875 -2.109375zm-7.515625 -3.703125l7.53125 0q-0.15625 -1.703125 -0.859375 -2.5625q-1.09375 -1.3125 -2.84375 -1.3125q-1.578125 0 -2.65625 1.0625q-1.0625 1.046875 -1.171875 2.8125zm17.751678 6.0l0.328125 2.015625q-0.96875 0.203125 -1.734375 0.203125q-1.25 0 -1.9375 -0.390625q-0.671875 -0.390625 -0.953125 -1.03125q-0.28125 -0.640625 -0.28125 -2.703125l0 -7.765625l-1.6875 0l0 -1.78125l1.6875 0l0 -3.359375l2.265625 -1.359375l0 4.71875l2.3125 0l0 1.78125l-2.3125 0l0 7.890625q0 0.984375 0.125 1.265625q0.125 0.265625 0.390625 0.4375q0.28125 0.171875 0.78125 0.171875q0.390625 0 1.015625 -0.09375zm8.551453 -1.984375l2.265625 -0.359375q0.1875 1.359375 1.0625 2.09375q0.875 0.71875 2.4375 0.71875q1.578125 0 2.34375 -0.640625q0.765625 -0.640625 0.765625 -1.5q0 -0.78125 -0.6875 -1.234375q-0.46875 -0.296875 -2.328125 -0.765625q-2.515625 -0.640625 -3.5 -1.09375q-0.96875 -0.46875 -1.46875 -1.28125q-0.5 -0.828125 -0.5 -1.828125q0 -0.90625 0.40625 -1.671875q0.421875 -0.765625 1.125 -1.28125q0.53125 -0.390625 1.453125 -0.65625q0.921875 -0.28125 1.984375 -0.28125q1.59375 0 2.796875 0.46875q1.203125 0.453125 1.765625 1.234375q0.578125 0.78125 0.796875 2.09375l-2.25 0.296875q-0.140625 -1.046875 -0.875 -1.625q-0.734375 -0.578125 -2.0625 -0.578125q-1.578125 0 -2.265625 0.515625q-0.671875 0.515625 -0.671875 1.21875q0 0.453125 0.28125 0.796875q0.28125 0.375 0.875 0.609375q0.34375 0.140625 2.03125 0.59375q2.421875 0.640625 3.375 1.0625q0.96875 0.40625 1.515625 1.203125q0.546875 0.78125 0.546875 1.953125q0 1.140625 -0.671875 2.15625q-0.65625 1.015625 -1.921875 1.578125q-1.25 0.546875 -2.84375 0.546875q-2.640625 0 -4.015625 -1.09375q-1.375 -1.09375 -1.765625 -3.25zm13.9453125 9.203125l0 -18.671875l2.078125 0l0 1.75q0.75 -1.03125 1.671875 -1.546875q0.921875 -0.515625 2.25 -0.515625q1.734375 0 3.046875 0.890625q1.328125 0.890625 2.0 2.515625q0.671875 1.625 0.671875 3.546875q0 2.078125 -0.75 3.734375q-0.734375 1.65625 -2.15625 2.546875q-1.40625 0.890625 -2.984375 0.890625q-1.140625 0 -2.046875 -0.484375q-0.90625 -0.484375 -1.5 -1.234375l0 6.578125l-2.28125 0zm2.078125 -11.84375q0 2.609375 1.046875 3.859375q1.0625 1.234375 2.5625 1.234375q1.515625 0 2.609375 -1.28125q1.09375 -1.296875 1.09375 -4.015625q0 -2.578125 -1.0625 -3.859375q-1.0625 -1.28125 -2.546875 -1.28125q-1.453125 0 -2.578125 1.375q-1.125 1.359375 -1.125 3.96875zm11.548523 -0.078125q0 -3.75 2.09375 -5.5625q1.734375 -1.5 4.25 -1.5q2.78125 0 4.546875 1.828125q1.765625 1.828125 1.765625 5.046875q0 2.59375 -0.78125 4.09375q-0.78125 1.5 -2.28125 2.328125q-1.484375 0.828125 -3.25 0.828125q-2.84375 0 -4.59375 -1.8125q-1.75 -1.828125 -1.75 -5.25zm2.359375 0q0 2.59375 1.125 3.890625q1.140625 1.28125 2.859375 1.28125q1.703125 0 2.828125 -1.296875q1.140625 -1.296875 1.140625 -3.953125q0 -2.5 -1.140625 -3.796875q-1.140625 -1.296875 -2.828125 -1.296875q-1.71875 0 -2.859375 1.296875q-1.125 1.28125 -1.125 3.875zm17.986023 4.703125l0.328125 2.015625q-0.96875 0.203125 -1.734375 0.203125q-1.25 0 -1.9375 -0.390625q-0.671875 -0.390625 -0.953125 -1.03125q-0.28125 -0.640625 -0.28125 -2.703125l0 -7.765625l-1.6875 0l0 -1.78125l1.6875 0l0 -3.359375l2.265625 -1.359375l0 4.71875l2.3125 0l0 1.78125l-2.3125 0l0 7.890625q0 0.984375 0.125 1.265625q0.125 0.265625 0.390625 0.4375q0.28125 0.171875 0.78125 0.171875q0.390625 0 1.015625 -0.09375z" fill-rule="nonzero"/><path fill="#fff2cc" d="m375.47052 361.1929l29.7323 -29.73227l29.73227 29.73227l-14.866119 0l0 170.36221l-29.7323 0l0 -170.36221z" fill-rule="evenodd"/><path stroke="#000000" stroke-width="1.3963254593175853" stroke-linejoin="round" stroke-linecap="butt" d="m375.47052 361.1929l29.7323 -29.73227l29.73227 29.73227l-14.866119 0l0 170.36221l-29.7323 0l0 -170.36221z" fill-rule="evenodd"/></g></svg>